<svg xmlns="http://www.w3.org/2000/svg" viewBox="0 0 48 48"><defs><style>.cls-1,.cls-3{fill:#0a6661;}.cls-1{opacity:0.3;}.cls-2{fill:none;stroke:#0a6661;stroke-miterlimit:10;}.cls-3{opacity:0.25;}.cls-4{fill:#fff;}</style></defs><g id="Layer_3" data-name="Layer 3"><path class="cls-1" d="M20.37,29.93a27.76,27.76,0,0,1,8.52-1.08,33.66,33.66,0,0,1,9.55,1.34S32,33.8,27.67,33.42,21.09,32.81,20.37,29.93Z"/><path class="cls-2" d="M11.86,42c.51-1.46,1.09-3,1.76-4.53a2.19,2.19,0,0,0,.09-.22,58.55,58.55,0,0,1,9.48-15.42"/><path class="cls-2" d="M26.86,25.21c-4.87.44-6.57,2.28-6.57,4.19,0,2.52,3.84,3.72,8.4,3.72,3,.1,9.49-2.07,9.75-3.36C38.65,28.72,33.84,24.58,26.86,25.21Z"/><path class="cls-2" d="M16.61,31.05c5.7-3.19,15.9-2.39,21.3-1.24"/><line class="cls-2" x1="23.81" y1="29.08" x2="28.03" y2="25.07"/><line class="cls-2" x1="24.24" y1="29.13" x2="29.17" y2="33.01"/><polyline class="cls-2" points="33.4 26.06 29.35 28.79 34.34 32.11"/><path class="cls-3" d="M11.57,12.52,10.2,11c0,1.49.34,6.25,2.2,9.29,2.23,3.64,4.2,4.43,5.85,3.43A35.55,35.55,0,0,0,11.57,12.52Z"/><path class="cls-2" d="M11.08,15c2.34,18.69,18.71,4.49.19-4a.61.61,0,0,0-.86.67Z"/><path class="cls-2" d="M10.49,11.24a42.83,42.83,0,0,1,4.24,5.15,22,22,0,0,1,2.95,5.69c.08.24.15.48.21.71s.16.65.23,1c0,0,0,0,0,.08a9.58,9.58,0,0,1-1.07,6.65"/><line class="cls-2" x1="18.77" y1="16.74" x2="17.52" y2="21.38"/><line class="cls-2" x1="17.21" y1="21.27" x2="11.76" y2="19.02"/><polyline class="cls-2" points="15.14 13.04 14.71 16.55 11.08 14.99"/><path class="cls-4" d="M22.81,20.59c-1-2.18-.18-5.3,4.16-8.33,4.83-3.39,12.38-3,12.38-3s.75.22.58.58l-.77.36-1.32.6A49.08,49.08,0,0,0,23.21,21.29,4.86,4.86,0,0,1,22.81,20.59Z"/><path class="cls-3" d="M37.84,10.82l2.59-1.19c-.88,1.85-3.88,7.72-7.92,10.54-4.83,3.37-7.76,3.3-9.3,1.12A49.08,49.08,0,0,1,37.84,10.82Z"/><path class="cls-2" d="M32.51,20.17c-4.83,3.37-7.76,3.3-9.3,1.12-1.3-1.19-.58-6,3.76-9,3.38-2.38,8.76-3,11.69-3.16a1.17,1.17,0,0,1,1.08,1.75C38.27,13.45,35.36,18.18,32.51,20.17Z"/><path class="cls-2" d="M23.49,21.64A59.73,59.73,0,0,1,39.56,10"/><line class="cls-2" x1="26.51" y1="18.62" x2="28.47" y2="11.31"/><line class="cls-2" x1="33.75" y1="19.17" x2="26.15" y2="18.59"/><polyline class="cls-2" points="37.45 14.49 31.71 14.68 32.92 9.86"/></g></svg>