<svg xmlns="http://www.w3.org/2000/svg" viewBox="0 0 48 48"><defs><style>.cls-1,.cls-2,.cls-4{fill:#0a6661;}.cls-1{opacity:0.45;}.cls-3,.cls-5,.cls-6,.cls-7{fill:none;}.cls-3,.cls-5,.cls-7{stroke:#0a6661;}.cls-3{stroke-linecap:round;stroke-linejoin:round;}.cls-4,.cls-7{opacity:0.47;}.cls-5,.cls-6,.cls-7{stroke-miterlimit:10;}.cls-6{stroke:#0b6762;}</style></defs><g id="Layer_6" data-name="Layer 6"><path class="cls-1" d="M33.23,31s.67,10.59-15,10.86c-5.65.09-8.81-1.72-8.81-1.72C13,44,16,41.94,17,46c.42,1.7,3-1,8-1a15.24,15.24,0,0,0,7.07-2.24c2.47-1.34,5.41-3.44,6.44-6.19,1.39-3.76.6-5.57.6-5.57Z"/><path class="cls-2" d="M39,32v.43a11,11,0,0,1-9.39,10.89A1.87,1.87,0,0,0,28,45.16V46H17V45a1.88,1.88,0,0,0-1.47-1.82A10.92,10.92,0,0,1,7,32.43V32H39m1-1H6v1.43a12,12,0,0,0,9.31,11.72A.87.87,0,0,1,16,45v1a.89.89,0,0,0,.82,1H28.14a.87.87,0,0,0,.86-.86v-1a.87.87,0,0,1,.76-.85A12,12,0,0,0,40,32.43V31Z"/><line class="cls-3" x1="28.5" y1="44.5" x2="21.5" y2="44.5"/><line class="cls-3" x1="16.5" y1="44.5" x2="18.5" y2="44.5"/><line class="cls-3" x1="36.5" y1="33.5" x2="9.5" y2="33.5"/><path class="cls-4" d="M32.71,19.78a29.41,29.41,0,0,1-4.41,4s0-.23,0-.6c.69-.8,1.49-1.49,2.17-2.29q.15-.16.3-.36a0,0,0,0,0,0,0,.23.23,0,0,0,.05-.07s0,0,0,0l0-.07a7,7,0,0,0,.45-.79c0-.06,0-.12.05-.18a3.13,3.13,0,0,0,.1-.44.66.66,0,0,0,0-.2,2.48,2.48,0,0,0,0-.47,1.09,1.09,0,0,1,.35-.94A1.75,1.75,0,0,1,32.71,19.78Z"/><path class="cls-4" d="M16.15,13.38A3.46,3.46,0,0,1,14,14a.73.73,0,0,1-.57-.26h-.07l-.1,0a.43.43,0,0,0,.16,0,1.34,1.34,0,0,0,.28,0,1.4,1.4,0,0,0,.35-.1,1.87,1.87,0,0,0,.39-.22,1.38,1.38,0,0,0,.27-.27,1.21,1.21,0,0,0,.2-.3,2,2,0,0,0,.1-.35.31.31,0,0,0,0-.1,1.19,1.19,0,0,1,1.18-1.14,1,1,0,0,1,.38.07h0A1.74,1.74,0,0,1,16.15,13.38Z"/><path class="cls-3" d="M32,31a18.39,18.39,0,0,1,2.68-1,13.17,13.17,0,0,1,3-.5h.06a4.61,4.61,0,0,1,.91,0"/><path class="cls-3" d="M38.51,31.36a3.64,3.64,0,0,1,.3-.36c.4-.48,1.07-1.2,1.14-1.36h0c0-.08,0-.12.06-.19h0a1,1,0,0,0-.63-1.29A2.42,2.42,0,0,0,39,28,3.91,3.91,0,0,0,38.4,28h-.2a7.81,7.81,0,0,0-1.58.18l-.1,0-.26.06a13.92,13.92,0,0,0-1.63.52l-.28.12a11.28,11.28,0,0,0-2.88,1.7l-.06.05A5.33,5.33,0,0,0,31,31a3,3,0,0,0-.34.38"/><path class="cls-3" d="M32.71,19.78a29.41,29.41,0,0,1-4.41,4s0-.23,0-.6c.07-1.57.38-5.64,1.68-6.09a2.27,2.27,0,0,1,1.83.25A1.75,1.75,0,0,1,32.71,19.78Z"/><polyline class="cls-3" points="31.82 15.04 31.73 17.81 34.36 16.2"/><line class="cls-3" x1="30.08" y1="21.05" x2="30.82" y2="21.58"/><line class="cls-3" x1="30.22" y1="19.29" x2="29.04" y2="18.5"/><path class="cls-3" d="M15.87,12.93a3.49,3.49,0,0,1-2.13.63.72.72,0,0,1-.57-.26h0A.61.61,0,0,1,13,12.9a3.43,3.43,0,0,1,.58-2.45,2,2,0,0,1,.87-.5,1.29,1.29,0,0,1,1.22.27l.43.4a1,1,0,0,1,.2.26h0A1.73,1.73,0,0,1,15.87,12.93Z"/><circle class="cls-5" cx="30" cy="27" r="0.5"/><path class="cls-3" d="M14.32,11.71s.84-1.41,1.82-.47"/><line class="cls-3" x1="31.8" y1="17.63" x2="33.26" y2="15.31"/><path class="cls-3" d="M40.67,17.89a5.43,5.43,0,0,1-1.4,2.78"/><path class="cls-6" d="M39.64,24.11a2.92,2.92,0,0,1-2.47.58A5.56,5.56,0,0,1,36,24.41a3.4,3.4,0,0,0-1.84.37.26.26,0,0,1-.3-.4,7.69,7.69,0,0,0,.63-.92A4.76,4.76,0,0,0,35,21.92c.22-1.47,2.69-3.73,4.46-1.46h0l.1.14C40.5,22,40.46,23.34,39.64,24.11Z"/><path class="cls-6" d="M41.32,18.8a3.69,3.69,0,0,1-.5.76,3.73,3.73,0,0,1-.45.44,1.77,1.77,0,0,1-1,.43s0,0,0,0-.4-3.77,1.41-3.36a1.14,1.14,0,0,1,.37.15C41.64,17.54,41.61,18.17,41.32,18.8Z"/><path class="cls-6" d="M39.37,20.43s0,0,0,0a1.21,1.21,0,0,0,1.08-.32,2.12,2.12,0,0,0,.36-.37,2.78,2.78,0,0,0,.23-.31,1.37,1.37,0,0,1,.41-.42.42.42,0,0,1,.18-.08.75.75,0,0,1,.57,0,1.21,1.21,0,0,1,.6.54,1,1,0,0,1,.16.81c-.38,1.46-2.22,1-3.47.39"/><path class="cls-3" d="M42.08,20a2.83,2.83,0,0,1-2.71.41"/><path class="cls-4" d="M39.79,24.22c-.26.22-.57.92-4.76.26-.23,0-.69.35-1,.3,0,0,.11-.25.34-.73,1.24-.78,5.55.3,5.17-3.47A3,3,0,0,1,39.79,24.22Z"/><path class="cls-4" d="M40.82,19.56a3.73,3.73,0,0,1-.45.44c-.19-.53-.33-.08.78-2.78C41.4,17.71,42,17.93,40.82,19.56Z"/><path class="cls-4" d="M42.81,19.48c-.23.08,0,.53-1.27.95A2.27,2.27,0,0,1,40,20.24C40.56,20,41.49,17.84,42.81,19.48Z"/><path class="cls-3" d="M37.66,22.53h0A2.87,2.87,0,0,1,36.53,21l-.12-.38"/><path class="cls-3" d="M39.12,22h0A2.87,2.87,0,0,1,38,20.53l-.12-.37"/><path class="cls-3" d="M35.43,21.36l0,0a1.77,1.77,0,0,0,.4.8l-.11,0"/><polyline class="cls-5" points="37.02 31.58 34.72 30 34.71 30 34.61 29.94 36.26 28.21 36.32 28.15"/><path class="cls-3" d="M7.47,14a2.5,2.5,0,0,0-.14,3,15.26,15.26,0,0,0,1.8,2.28s1.33,1,.55-1.18-1.49-1.41-1.1-3S7.47,14,7.47,14Z"/><line class="cls-3" x1="7.88" y1="13.88" x2="7.85" y2="12.43"/><path class="cls-4" d="M9.33,19.33c.33.18.94.33.35-1.29-.78-2.15-1.49-1.41-1.1-3a1.49,1.49,0,0,0,0-.71.77.77,0,0,0-.82.59A5.15,5.15,0,0,0,9.33,19.33Z"/><line class="cls-7" x1="22.47" y1="21.87" x2="19.25" y2="24.16"/><rect class="cls-3" x="20.13" y="20.8" width="1.74" height="4.35" transform="translate(26.16 -7.72) rotate(51.97)"/><path class="cls-3" d="M14.58,26.85l.57,1.86L12.29,30l-1-2.2s-2,2.14-3-.23C7.61,26,9.42,26,9.42,26S7,24.71,9,23.28c1.59-1.13,1.72.28,1.72.28s1.3-3.22,3.35-.36c0,0,1.5-.31,1.94.93.77,2.2-1.42,2.72-2.28,2.58"/><path class="cls-3" d="M10.45,26.65s1.81,1.32,2.12-1"/><path class="cls-3" d="M14,25s-.52-1.88-1.81-.72"/><rect class="cls-4" x="11.95" y="26.62" width="0.75" height="2.92" transform="translate(-9.44 6.48) rotate(-21.53)"/></g><g id="Layer_3" data-name="Layer 3"><path class="cls-4" d="M24,31s0,1,0,1c0-.42-.26-.45-.46-1.14-.56-1.88-1.82-3.72-3.32-.07h0c-.2.49,0,.19,1.1,0h0l.54-.08H22c0,.19,0,.38,0,.58-.06.79,0-.17,0,.23,0,0,.06-.5.05-.49Z"/><circle class="cls-5" cx="16.5" cy="18.5" r="1"/><circle class="cls-5" cx="37" cy="12.04" r="1"/><path class="cls-3" d="M22.07,31.06a.28.28,0,0,0,0-.09c0-2.66-1-.87-1.47.06"/><path class="cls-3" d="M25.41,30.1c-.43-1.57-1.24-1.36-1.24-1.36l.46,2.73"/><path class="cls-3" d="M22.15,31.33a5.32,5.32,0,0,1-1.47.06c-.76-.08-1.32-.37-1.48-1-.35-1.4,1.06-2.95,3.16-3.48s4.08.17,4.43,1.57c.25,1-.25,1.56-1.29,2a7.24,7.24,0,0,1-1.09.38"/><path class="cls-2" d="M24,3a.5.5,0,0,1,.5.5V5h3a.5.5,0,0,1,0,1h-3v4H25a3,3,0,0,1,0,6h-.5v1.5a.5.5,0,0,1-1,0V16h-3a.5.5,0,0,1,0-1h3V11H23a3.2,3.2,0,0,1-.63-.07l-.1,0a3,3,0,0,1-.5-.17l0,0a3,3,0,0,1-.95-.71h0A3,3,0,0,1,20,8a3,3,0,0,1,3-3h.5V3.5A.5.5,0,0,1,24,3m-1,7h.5V6H23a2,2,0,0,0,0,4m1.5,5H25a2,2,0,0,0,0-4h-.5v4M24,2a1.5,1.5,0,0,0-1.5,1.5V4a4,4,0,0,0-1.23,7.57l.08,0a4.17,4.17,0,0,0,.68.23l.12,0,.35.06v2h-2a1.5,1.5,0,0,0,0,3h2v.5a1.5,1.5,0,0,0,3,0V17A4,4,0,0,0,25.5,9V7h2a1.5,1.5,0,0,0,0-3h-2V3.5A1.5,1.5,0,0,0,24,2ZM22.5,8.87a1,1,0,0,1,0-1.74V8.87Zm3,5V12.13a1,1,0,0,1,0,1.74Z"/><path class="cls-1" d="M25,11a2,2,0,0,1,0,4h-.5V11h-1v4h-3a.5.5,0,0,0,0,1h3v1.5a.5.5,0,0,0,1,0V16H25a3,3,0,0,0,3-3,3,3,0,0,0-.78-2Z"/></g></svg>