<svg xmlns="http://www.w3.org/2000/svg" viewBox="0 0 48 48"><defs><style>.cls-1,.cls-2{fill:#0a6661;}.cls-2{opacity:0.47;}</style></defs><g id="Layer_3" data-name="Layer 3"><path class="cls-1" d="M34,23v6H14V23H34m1-1H13v8H35V22Z"/><path class="cls-1" d="M12.5,14a.5.5,0,0,1,.5.5v23a.5.5,0,0,1-.5.5h-1a.5.5,0,0,1-.5-.5v-23a.5.5,0,0,1,.5-.5h1m0-1h-1A1.5,1.5,0,0,0,10,14.5v23A1.5,1.5,0,0,0,11.5,39h1A1.5,1.5,0,0,0,14,37.5v-23A1.5,1.5,0,0,0,12.5,13Z"/><path class="cls-1" d="M9.5,16a.5.5,0,0,1,.5.5v19a.5.5,0,0,1-.5.5h-1a.5.5,0,0,1-.5-.5v-19a.5.5,0,0,1,.5-.5h1m0-1h-1A1.5,1.5,0,0,0,7,16.5v19A1.5,1.5,0,0,0,8.5,37h1A1.5,1.5,0,0,0,11,35.5v-19A1.5,1.5,0,0,0,9.5,15Z"/><path class="cls-1" d="M6.5,19a.5.5,0,0,1,.5.5v13a.5.5,0,0,1-.5.5h-1a.5.5,0,0,1-.5-.5v-13a.5.5,0,0,1,.5-.5h1m0-1h-1A1.5,1.5,0,0,0,4,19.5v13A1.5,1.5,0,0,0,5.5,34h1A1.5,1.5,0,0,0,8,32.5v-13A1.5,1.5,0,0,0,6.5,18Z"/><rect class="cls-2" x="14" y="26" width="20" height="3"/><polygon class="cls-2" points="13.73 14.74 10.88 38.06 14 37.91 14 36.22 13.73 14.74"/><polygon class="cls-2" points="10.73 16.12 7.88 37 11 36.87 11 35.35 10.73 16.12"/><polygon class="cls-2" points="7.21 18 5 33.17 7.42 33.08 7.42 31.98 7.21 18"/><path class="cls-1" d="M36.5,14a.5.5,0,0,1,.5.5v23a.5.5,0,0,1-.5.5h-1a.5.5,0,0,1-.5-.5v-23a.5.5,0,0,1,.5-.5h1m0-1h-1A1.5,1.5,0,0,0,34,14.5v23A1.5,1.5,0,0,0,35.5,39h1A1.5,1.5,0,0,0,38,37.5v-23A1.5,1.5,0,0,0,36.5,13Z"/><path class="cls-1" d="M39.5,16a.5.5,0,0,1,.5.5v19a.5.5,0,0,1-.5.5h-1a.5.5,0,0,1-.5-.5v-19a.5.5,0,0,1,.5-.5h1m0-1h-1A1.5,1.5,0,0,0,37,16.5v19A1.5,1.5,0,0,0,38.5,37h1A1.5,1.5,0,0,0,41,35.5v-19A1.5,1.5,0,0,0,39.5,15Z"/><path class="cls-1" d="M42.5,19a.5.5,0,0,1,.5.5v13a.5.5,0,0,1-.5.5h-1a.5.5,0,0,1-.5-.5v-13a.5.5,0,0,1,.5-.5h1m0-1h-1A1.5,1.5,0,0,0,40,19.5v13A1.5,1.5,0,0,0,41.5,34h1A1.5,1.5,0,0,0,44,32.5v-13A1.5,1.5,0,0,0,42.5,18Z"/><polygon class="cls-2" points="34.27 14.74 37.13 38.06 34 37.91 34 36.22 34.27 14.74"/><polygon class="cls-2" points="37.27 16.12 40.13 37 37 36.87 37 35.35 37.27 16.12"/><polygon class="cls-2" points="40.79 18 43 33.17 40.58 33.08 40.58 31.98 40.79 18"/></g></svg>