<?xml version="1.0" encoding="utf-8"?>
<!-- Generator: Adobe Illustrator 26.4.1, SVG Export Plug-In . SVG Version: 6.00 Build 0)  -->
<svg version="1.1" id="Layer_1" xmlns="http://www.w3.org/2000/svg" xmlns:xlink="http://www.w3.org/1999/xlink" x="0px" y="0px"
	 viewBox="0 0 137.1 108.5" style="enable-background:new 0 0 137.1 108.5;" xml:space="preserve">
<style type="text/css">
	.st0{opacity:0.25;fill:#0C6762;enable-background:new    ;}
	.st1{fill:#0C6762;}
	.st2{fill:none;stroke:#0C6762;stroke-width:3.2368;stroke-linecap:round;stroke-linejoin:round;}
	.st3{opacity:0.25;fill:none;stroke:#0C6762;stroke-width:3.1807;stroke-miterlimit:10;enable-background:new    ;}
</style>
<polygon class="st0" points="87.7,1.6 87.7,36.6 70.2,36.3 70.2,106.9 116.2,106.9 116.2,68.9 135.5,68.2 116.2,35.1 103.5,36.3 
	102.8,1.6 "/>
<g>
	<g>
		<g>
			<path class="st1" d="M94.9,81.4c0.1-1.1-0.5-1.7-1.3-2.4l0,0l0,0c0.1-0.1,0.4-0.4,0.6-0.6c0.2-0.2,0.4-0.4,0.6-0.6
				c0,0-0.6-0.4-0.7-0.5c-0.3-0.1-0.6-0.2-0.9-0.3c-0.6-0.1-1.3,0-1.9,0.3c-0.5,0.2-0.8,0.5-1,0.9c-0.2,0.3-0.3,0.7-0.3,1.1
				c0,0.9,0.6,1.8,1.2,2.4l0,0l0,0c-0.1,0.1-0.4,0.3-0.7,0.6c-0.3,0.2-0.5,0.4-0.7,0.5c1,1,2.9,1.1,4.1,0.2
				C94.4,82.7,94.8,82.3,94.9,81.4z"/>
			<path class="st1" d="M109.3,83.5h1.4v-2h-1.4c-0.7,0-1.3-0.6-1.3-1.3c0-0.7,0.6-1.3,1.3-1.3h1.4v-2h-1.4c-1.8,0-3.2,1.4-3.2,3.2
				S107.5,83.5,109.3,83.5z"/>
			<rect x="102.9" y="77" class="st1" width="2" height="6.5"/>
			<polygon class="st1" points="98.5,76.9 95.2,83.5 97.4,83.5 98.6,81.3 99.7,83.5 102,83.5 101.9,83.3 			"/>
			<polygon class="st1" points="79.5,81 79.5,83.6 81.5,83.6 81.5,77.2 79.4,77.2 78,79.1 76.6,77.2 74.6,77.2 74.6,83.6 76.5,83.6 
				76.5,81 78,82.5 			"/>
			<path class="st1" d="M85.9,77c-1.8,0-3.3,1.5-3.3,3.3c0,1.8,1.5,3.3,3.3,3.3s3.3-1.5,3.3-3.3C89.2,78.5,87.7,77,85.9,77z
				 M87.3,80.4L87.3,80.4l-2.8,0l0-0.1c0-0.8,0.6-1.4,1.4-1.4S87.3,79.5,87.3,80.4L87.3,80.4z"/>
		</g>
	</g>
	<g>
		<g>
			<path class="st1" d="M112.1,82.6c0,0.2,0,0.4,0,0.6c0.1,0,0.1,0,0.2,0c0-0.2,0-0.5,0-0.5c0.1,0,0.2,0,0.3,0c0,0,0,0.4,0,0.5
				c0.1,0,0.2,0,0.3,0c0,0.1,0,0.3,0,0.3c-0.3,0-0.7,0-1.1,0c0-0.2,0-0.7,0-0.9C111.9,82.6,112.1,82.6,112.1,82.6z"/>
			<path class="st1" d="M111.8,81.7c0-0.4,0.2-0.6,0.6-0.6s0.6,0.2,0.6,0.6c0,0.4-0.2,0.6-0.6,0.6C112,82.3,111.8,82.1,111.8,81.7z
				 M112.1,81.7c0,0.2,0.1,0.3,0.3,0.3c0.2,0,0.3-0.1,0.3-0.3c0-0.2-0.1-0.3-0.3-0.3C112.2,81.4,112.1,81.6,112.1,81.7z"/>
			<path class="st1" d="M111.8,80.3c0-0.4,0.2-0.6,0.6-0.6s0.6,0.2,0.6,0.6c0,0.4-0.2,0.6-0.6,0.6C112,80.9,111.8,80.7,111.8,80.3z
				 M112.1,80.3c0,0.2,0.1,0.3,0.3,0.3c0.2,0,0.3-0.1,0.3-0.3c0-0.2-0.1-0.3-0.3-0.3C112.2,80,112.1,80.1,112.1,80.3z"/>
			<path class="st1" d="M111.8,79.4c0-0.2,0-0.4,0-0.6c0-0.3,0.2-0.5,0.6-0.5c0.3,0,0.5,0.1,0.5,0.4c0,0.2,0,0.5,0,0.6
				C112.6,79.4,112.2,79.4,111.8,79.4z M112.4,78.6c-0.2,0-0.3,0.1-0.3,0.3c0,0.1,0,0.1,0,0.2c0.2,0,0.4,0,0.6,0c0,0,0-0.1,0-0.2
				C112.7,78.7,112.6,78.6,112.4,78.6z"/>
			<path class="st1" d="M112.2,77.3c-0.1,0-0.1,0.1-0.1,0.2c0,0.1,0,0.2,0.1,0.2c0.1,0,0.1-0.1,0.1-0.2c0-0.3,0.1-0.5,0.4-0.5
				c0.2,0,0.4,0.2,0.4,0.5c0,0.3-0.1,0.5-0.3,0.6c0-0.1-0.1-0.2-0.1-0.3c0.1,0,0.2-0.1,0.2-0.3c0-0.1,0-0.2-0.1-0.2
				c-0.1,0-0.1,0.1-0.1,0.2c0,0.3-0.1,0.5-0.3,0.5c-0.2,0-0.3-0.2-0.3-0.5c0-0.3,0.1-0.4,0.3-0.5C112.1,77.1,112.1,77.3,112.2,77.3z
				"/>
		</g>
	</g>
</g>
<path class="st2" d="M70.2,36.3"/>
<polyline class="st2" points="22.3,68.2 22.3,106.9 70.2,106.9 116.2,106.9 116.2,68.9 "/>
<polygon class="st2" points="116.2,36.3 135.5,68.2 90.1,68.2 70.2,36.3 "/>
<polyline class="st2" points="87.7,1.6 87.7,35.1 87.7,1.6 "/>
<polyline class="st2" points="35.9,36.3 35.9,1.6 87.7,1.6 102.8,1.6 102.8,34.9 "/>
<line class="st2" x1="94.8" y1="10.7" x2="94.8" y2="23.9"/>
<path class="st2" d="M81.6,35.1c0,0-0.6-5.7-9.2-6.2c0,0-3.1,0.5-2.2,3.1c0,0,2.4,1.9,2.2,3.1"/>
<path class="st2" d="M61.5,35.1c0,0,1-4.2-3.3-4.9s-6.4-2.7-5.1-4.8s2-2.7,4.8-2.7c2.8,0,6.7-2.1,7.7-4.8c0.9-2.3,8.9-1.5,11.7,3.9
	s2.1,9.8,2,9.7"/>
<path class="st2" d="M52.7,23.3c0,0-7.1-1-6.3,3.9c0,0,0.3,5.1,6.7,1.7"/>
<path class="st2" d="M44.1,35.1c0,0-2.2-4.2,2.4-5.5c0,0,5.6,0.6,3.3,6.1l5.2,0.5c0,0,4.1-5.3,0.5-6.8"/>
<path class="st2" d="M74.9,20c0,0-8.5,2.2-3.6,8.9c0,0,8.9-0.3,6-7.2"/>
<path class="st3" d="M41.3,36.6c0-12,9.8-21.8,21.8-21.8s21.8,9.8,21.8,21.8"/>
<rect x="31.9" y="85.4" class="st2" width="18.3" height="12.5"/>
<rect x="35.9" y="0.9" class="st0" width="67.6" height="9.8"/>
<path class="st0" d="M22.3,77.5h25.4c0,0,7.1,0.2,9.2-7.6c2-7.9,7.4-24.2,7.4-24.2L50.3,68.2H22.3V77.5z"/>
<polyline class="st2" points="70.2,36.3 70.2,106.9 70.2,36.3 22.3,36.3 1.6,68.2 50.3,68.2 70.2,36.3 "/>
</svg>
