<svg xmlns="http://www.w3.org/2000/svg" width="637" height="111" viewBox="0 0 637 111"><g fill="#FBF4E9"><path d="M337.711 73.6634C340.18 56.2371 329.529 45.3029 316.424 33.8047L315.653 33.1266 316.374 32.3951C318.433 30.2959 322.712 26.1584 326.845 22.158 330.487 18.6377 334.241 15.0069 336.419 12.8239 336.833 12.4086 325.829 5.82899 324.82 5.36038 320.308 3.26115 315.5 1.79055 310.585.982864 299.945-.758238 288.907.716174 279.145 5.28799 271.592 8.82735 265.971 13.4754 262.233 20.8855 259.514 26.2765 257.992 32.2389 257.996 38.2775 258.004 53.6998 267.558 67.1943 278.263 77.5418L278.972 78.2276 278.275 78.9248C276.216 80.9859 271.281 84.6815 266.059 88.5942 261.654 91.8935 257.114 95.2919 254.837 97.353 270.848 113.949 302.226 115.709 322.589 100.961 328.54 95.6843 335.717 87.756 337.711 73.6596L337.711 73.6634ZM576.479 108.585 599.759 108.585 599.759 76.1514 576.479 76.1514C565.011 76.1514 555.679 66.8782 555.679 55.4829 555.679 44.0877 565.011 34.8145 576.479 34.8145L599.759 34.8145 599.759 2.37744 576.479 2.37744C547.01 2.37744 523.039 26.2004 523.039 55.4791 523.039 84.7578 547.01 108.581 576.479 108.581L576.479 108.585Z"/><polygon points="503.006 1.654 470.367 1.654 470.367 108.402 503.006 108.402"/><polygon points="397.726 0 342.538 108.779 379.092 108.779 398.178 71.157 417.87 108.779 454.743 108.779 453.14 105.628"/><polygon points="81.49 67.32 81.49 110.665 114.129 110.665 114.129 4.263 79.818 4.263 57.063 35.55 34.311 4.263 0 4.263 0 110.665 32.64 110.665 32.64 67.32 57.063 91.231"/><path d="M188.104 1.51245C157.899 1.51245 133.327 25.9298 133.327 55.9438 133.327 85.9578 157.899 110.375 188.104 110.375 218.309 110.375 242.882 85.9578 242.882 55.9438 242.882 25.9298 218.309 1.51245 188.104 1.51245ZM211.615 56.9191 210.63 57.0372 164.624 57.0372 164.600997 56.0848C164.594 43.0589 175.141 32.5818 188.104 32.5818 201.067 32.5818 211.615 43.0627 211.615 55.9438L211.615 56.9191ZM623.251 93.1165C623.048 95.9129 622.96 100.237 622.933 102.656 623.949 102.687 625.31 102.687 626.847 102.687 626.878 99.978 626.847 94.6442 626.79 93.8975 628.27 93.9546 629.662 93.9546 631.053 93.8975 631.023 94.648 631.023 100.035 631.053 102.687 632.997 102.656 634.941 102.599 636.536 102.542 636.479 103.925 636.505 107.27 636.536 108.078 631.372 107.845 624.209 107.876 618.32 108.078 618.378 105.396 618.408 96.2024 618.32 93.1165 619.394 93.1165 622.354 93.1469 623.251 93.1165L623.251 93.1165ZM617.856 78.8487C617.856 72.4215 621.802 69.2783 627.43 69.2783 633.059 69.2783 637.004 72.5929 637.004 78.8487 637.004 85.1044 633.001 88.4457 627.403 88.4457 621.805 88.4457 617.86 85.3026 617.86 78.8487L617.856 78.8487ZM622.438 78.8487C622.438 81.5575 624.148 83.3443 627.426 83.3443 630.704 83.3443 632.414 81.5575 632.414 78.8487 632.414 76.1399 630.731 74.3797 627.426 74.3797 624.121 74.3797 622.438 76.1665 622.438 78.8487ZM617.856 55.0713C617.856 48.6441 621.802 45.501 627.43 45.501 633.059 45.501 637.004 48.8155 637.004 55.0713 637.004 61.3271 633.001 64.6683 627.403 64.6683 621.805 64.6683 617.86 61.5252 617.86 55.0713L617.856 55.0713ZM622.438 55.0713C622.438 57.7801 624.148 59.5669 627.426 59.5669 630.704 59.5669 632.414 57.7801 632.414 55.0713 632.414 52.3625 630.731 50.6024 627.426 50.6024 624.121 50.6024 622.438 52.3892 622.438 55.0713ZM618.351 40.3767C618.408 37.1192 618.32 34.3228 618.32 31.2406 618.32 25.8497 621.104 22.939 627.488 22.939 632.913 22.939 636.536 24.9849 636.536 30.3453 636.536 33.717 636.479 37.8393 636.536 40.3767 630.704 40.289 624.788 40.2014 618.347 40.3767L618.351 40.3767ZM627.545 27.8384C623.485 27.8384 622.584 29.8005 622.584 32.4788 622.584 33.3703 622.614 34.6695 622.614 35.1305 625.486 35.2181 629.546 35.2181 632.388 35.1 632.418 34.4371 632.418 33.1113 632.418 32.1893 632.418 29.7967 631.23 27.8384 627.545 27.8384L627.545 27.8384ZM624.006 6.62529C622.584 6.97199 621.744 8.12256 621.744 10.0542 621.744 11.7267 622.266 12.6487 623.339 12.6487 624.413 12.6487 624.877 11.5248 625.168 9.18932 625.866 3.65361 627.169 1.14673 631.026 1.14673 634.362 1.14673 636.942 3.71076 636.942 9.15885 636.942 13.4525 635.493 17.3462 631.46 18.413 631.199 17.3462 630.444 14.5498 630.156 13.5402 632.188 12.9344 632.736 11.2924 632.736 9.15885 632.736 7.25773 632.069 6.41956 631.141 6.41956 630.041 6.41956 629.577 7.34155 629.313 9.61984 628.734 14.4622 627.603 17.632 623.6 17.632 620.41 17.632 617.914 14.9498 617.914 10.138 617.914 5.32613 619.685 2.96022 622.96 1.69154 623.132 2.67067 623.799 5.58139 624.002 6.62148L624.006 6.62529Z"/></g></svg>
